<svg xmlns="http://www.w3.org/2000/svg" viewBox="0 0 100 100" fill="none" stroke="#171717" stroke-width="1.5">
  <rect x="10" y="10" width="20" height="20" fill="#171717"/>
  <rect x="35" y="10" width="5" height="5" fill="#171717"/>
  <rect x="45" y="10" width="5" height="5" fill="#171717"/>
  <rect x="70" y="10" width="20" height="20" fill="#171717"/>
  <rect x="10" y="35" width="5" height="5" fill="#171717"/>
  <rect x="20" y="35" width="5" height="5" fill="#171717"/>
  <rect x="35" y="35" width="15" height="5" fill="#171717"/>
  <rect x="55" y="35" width="5" height="5" fill="#171717"/>
  <rect x="70" y="35" width="5" height="5" fill="#171717"/>
  <rect x="80" y="35" width="5" height="5" fill="#171717"/>
  <rect x="10" y="55" width="15" height="15" fill="#171717"/>
  <rect x="35" y="55" width="5" height="5" fill="#171717"/>
  <rect x="50" y="55" width="15" height="5" fill="#171717"/>
  <rect x="70" y="55" width="20" height="20" fill="#171717"/>
  <rect x="10" y="80" width="5" height="5" fill="#171717"/>
  <rect x="25" y="80" width="10" height="5" fill="#171717"/>
  <rect x="45" y="80" width="5" height="5" fill="#171717"/>
  <rect x="55" y="80" width="5" height="5" fill="#171717"/>
</svg>
